<?xml version="1.0" encoding="UTF-8" standalone="no"?>
<svg
   height="251.45705"
   width="251.45705"
   version="1.1"
   id="svg125"
   sodipodi:docname="cevs_logo_white.svg"
   inkscape:version="1.1.1 (3bf5ae0d25, 2021-09-20)"
   xmlns:inkscape="http://www.inkscape.org/namespaces/inkscape"
   xmlns:sodipodi="http://sodipodi.sourceforge.net/DTD/sodipodi-0.dtd"
   xmlns:xlink="http://www.w3.org/1999/xlink"
   xmlns="http://www.w3.org/2000/svg"
   xmlns:svg="http://www.w3.org/2000/svg">
  <defs
     id="defs129">
    <inkscape:path-effect
       effect="spiro"
       id="path-effect5677"
       is_visible="true"
       lpeversion="1" />
    <inkscape:path-effect
       effect="bspline"
       id="path-effect5675"
       is_visible="true"
       lpeversion="1"
       weight="33.333333"
       steps="2"
       helper_size="0"
       apply_no_weight="true"
       apply_with_weight="true"
       only_selected="false" />
    <pattern
       id="tecky-7"
       width="12"
       height="12"
       patternUnits="userSpaceOnUse"
       patternTransform="scale(0.65)">
      <rect
         x="0"
         y="0"
         width="12"
         height="12"
         fill="white"
         id="rect88" />
      <circle
         id="kruh-7"
         cx="0"
         cy="0"
         r="1.75"
         fill="black" />
      <use
         xlink:href="#kruh-7"
         x="6"
         y="6"
         id="use91-6" />
      <use
         xlink:href="#kruh-7"
         x="0"
         y="12"
         id="use93-6" />
      <use
         xlink:href="#kruh-7"
         x="12"
         y="0"
         id="use95-1" />
      <use
         xlink:href="#kruh-7"
         x="12"
         y="12"
         id="use97" />
    </pattern>
    <pattern
       id="pattern1034"
       width="12"
       height="12"
       patternUnits="userSpaceOnUse"
       patternTransform="scale(0.65)">
      <rect
         x="0"
         y="0"
         width="12"
         height="12"
         fill="white"
         id="rect1022" />
      <circle
         id="circle1024"
         cx="0"
         cy="0"
         r="1.75"
         fill="black" />
      <use
         xlink:href="#kruh-7"
         x="6"
         y="6"
         id="use1026" />
      <use
         xlink:href="#kruh-7"
         x="0"
         y="12"
         id="use1028" />
      <use
         xlink:href="#kruh-7"
         x="12"
         y="0"
         id="use1030" />
      <use
         xlink:href="#kruh-7"
         x="12"
         y="12"
         id="use1032" />
    </pattern>
    <pattern
       id="pattern1048"
       width="12"
       height="12"
       patternUnits="userSpaceOnUse"
       patternTransform="scale(0.65)">
      <rect
         x="0"
         y="0"
         width="12"
         height="12"
         fill="white"
         id="rect1036" />
      <circle
         id="circle1038"
         cx="0"
         cy="0"
         r="1.75"
         fill="black" />
      <use
         xlink:href="#kruh-7"
         x="6"
         y="6"
         id="use1040" />
      <use
         xlink:href="#kruh-7"
         x="0"
         y="12"
         id="use1042" />
      <use
         xlink:href="#kruh-7"
         x="12"
         y="0"
         id="use1044" />
      <use
         xlink:href="#kruh-7"
         x="12"
         y="12"
         id="use1046" />
    </pattern>
    <pattern
       id="pattern1062"
       width="12"
       height="12"
       patternUnits="userSpaceOnUse"
       patternTransform="scale(0.65)">
      <rect
         x="0"
         y="0"
         width="12"
         height="12"
         fill="white"
         id="rect1050" />
      <circle
         id="circle1052"
         cx="0"
         cy="0"
         r="1.75"
         fill="black" />
      <use
         xlink:href="#kruh-7"
         x="6"
         y="6"
         id="use1054" />
      <use
         xlink:href="#kruh-7"
         x="0"
         y="12"
         id="use1056" />
      <use
         xlink:href="#kruh-7"
         x="12"
         y="0"
         id="use1058" />
      <use
         xlink:href="#kruh-7"
         x="12"
         y="12"
         id="use1060" />
    </pattern>
    <pattern
       id="pattern1076"
       width="12"
       height="12"
       patternUnits="userSpaceOnUse"
       patternTransform="scale(0.65)">
      <rect
         x="0"
         y="0"
         width="12"
         height="12"
         fill="white"
         id="rect1064" />
      <circle
         id="circle1066"
         cx="0"
         cy="0"
         r="1.75"
         fill="black" />
      <use
         xlink:href="#kruh-7"
         x="6"
         y="6"
         id="use1068" />
      <use
         xlink:href="#kruh-7"
         x="0"
         y="12"
         id="use1070" />
      <use
         xlink:href="#kruh-7"
         x="12"
         y="0"
         id="use1072" />
      <use
         xlink:href="#kruh-7"
         x="12"
         y="12"
         id="use1074" />
    </pattern>
    <pattern
       id="pattern1090"
       width="12"
       height="12"
       patternUnits="userSpaceOnUse"
       patternTransform="scale(0.65)">
      <rect
         x="0"
         y="0"
         width="12"
         height="12"
         fill="white"
         id="rect1078" />
      <circle
         id="circle1080"
         cx="0"
         cy="0"
         r="1.75"
         fill="black" />
      <use
         xlink:href="#kruh-7"
         x="6"
         y="6"
         id="use1082" />
      <use
         xlink:href="#kruh-7"
         x="0"
         y="12"
         id="use1084" />
      <use
         xlink:href="#kruh-7"
         x="12"
         y="0"
         id="use1086" />
      <use
         xlink:href="#kruh-7"
         x="12"
         y="12"
         id="use1088" />
    </pattern>
    <pattern
       id="pattern1104"
       width="12"
       height="12"
       patternUnits="userSpaceOnUse"
       patternTransform="scale(0.65)">
      <rect
         x="0"
         y="0"
         width="12"
         height="12"
         fill="white"
         id="rect1092" />
      <circle
         id="circle1094"
         cx="0"
         cy="0"
         r="1.75"
         fill="black" />
      <use
         xlink:href="#kruh-7"
         x="6"
         y="6"
         id="use1096" />
      <use
         xlink:href="#kruh-7"
         x="0"
         y="12"
         id="use1098" />
      <use
         xlink:href="#kruh-7"
         x="12"
         y="0"
         id="use1100" />
      <use
         xlink:href="#kruh-7"
         x="12"
         y="12"
         id="use1102" />
    </pattern>
    <pattern
       id="pattern1118"
       width="12"
       height="12"
       patternUnits="userSpaceOnUse"
       patternTransform="scale(0.65)">
      <rect
         x="0"
         y="0"
         width="12"
         height="12"
         fill="white"
         id="rect1106" />
      <circle
         id="circle1108"
         cx="0"
         cy="0"
         r="1.75"
         fill="black" />
      <use
         xlink:href="#kruh-7"
         x="6"
         y="6"
         id="use1110" />
      <use
         xlink:href="#kruh-7"
         x="0"
         y="12"
         id="use1112" />
      <use
         xlink:href="#kruh-7"
         x="12"
         y="0"
         id="use1114" />
      <use
         xlink:href="#kruh-7"
         x="12"
         y="12"
         id="use1116" />
    </pattern>
    <pattern
       id="pattern1132"
       width="12"
       height="12"
       patternUnits="userSpaceOnUse"
       patternTransform="scale(0.65)">
      <rect
         x="0"
         y="0"
         width="12"
         height="12"
         fill="white"
         id="rect1120" />
      <circle
         id="circle1122"
         cx="0"
         cy="0"
         r="1.75"
         fill="black" />
      <use
         xlink:href="#kruh-7"
         x="6"
         y="6"
         id="use1124" />
      <use
         xlink:href="#kruh-7"
         x="0"
         y="12"
         id="use1126" />
      <use
         xlink:href="#kruh-7"
         x="12"
         y="0"
         id="use1128" />
      <use
         xlink:href="#kruh-7"
         x="12"
         y="12"
         id="use1130" />
    </pattern>
    <pattern
       id="pattern1146"
       width="12"
       height="12"
       patternUnits="userSpaceOnUse"
       patternTransform="scale(0.65)">
      <rect
         x="0"
         y="0"
         width="12"
         height="12"
         fill="white"
         id="rect1134" />
      <circle
         id="circle1136"
         cx="0"
         cy="0"
         r="1.75"
         fill="black" />
      <use
         xlink:href="#kruh-7"
         x="6"
         y="6"
         id="use1138" />
      <use
         xlink:href="#kruh-7"
         x="0"
         y="12"
         id="use1140" />
      <use
         xlink:href="#kruh-7"
         x="12"
         y="0"
         id="use1142" />
      <use
         xlink:href="#kruh-7"
         x="12"
         y="12"
         id="use1144" />
    </pattern>
    <pattern
       id="pattern1160"
       width="12"
       height="12"
       patternUnits="userSpaceOnUse"
       patternTransform="scale(0.65)">
      <rect
         x="0"
         y="0"
         width="12"
         height="12"
         fill="white"
         id="rect1148" />
      <circle
         id="circle1150"
         cx="0"
         cy="0"
         r="1.75"
         fill="black" />
      <use
         xlink:href="#kruh-7"
         x="6"
         y="6"
         id="use1152" />
      <use
         xlink:href="#kruh-7"
         x="0"
         y="12"
         id="use1154" />
      <use
         xlink:href="#kruh-7"
         x="12"
         y="0"
         id="use1156" />
      <use
         xlink:href="#kruh-7"
         x="12"
         y="12"
         id="use1158" />
    </pattern>
    <pattern
       id="tecky-0"
       width="12"
       height="12"
       patternUnits="userSpaceOnUse"
       patternTransform="scale(0.65)">
      <rect
         x="0"
         y="0"
         width="12"
         height="12"
         fill="white"
         id="rect96" />
      <circle
         id="kruh-1"
         cx="0"
         cy="0"
         r="1.75"
         fill="black" />
      <use
         xlink:href="#kruh-1"
         x="6"
         y="6"
         id="use99" />
      <use
         xlink:href="#kruh-1"
         x="0"
         y="12"
         id="use101" />
      <use
         xlink:href="#kruh-1"
         x="12"
         y="0"
         id="use103" />
      <use
         xlink:href="#kruh-1"
         x="12"
         y="12"
         id="use105" />
    </pattern>
    <pattern
       id="pattern1488"
       width="12"
       height="12"
       patternUnits="userSpaceOnUse"
       patternTransform="scale(0.65)">
      <rect
         x="0"
         y="0"
         width="12"
         height="12"
         fill="white"
         id="rect1476" />
      <circle
         id="circle1478"
         cx="0"
         cy="0"
         r="1.75"
         fill="black" />
      <use
         xlink:href="#kruh-1"
         x="6"
         y="6"
         id="use1480" />
      <use
         xlink:href="#kruh-1"
         x="0"
         y="12"
         id="use1482" />
      <use
         xlink:href="#kruh-1"
         x="12"
         y="0"
         id="use1484" />
      <use
         xlink:href="#kruh-1"
         x="12"
         y="12"
         id="use1486" />
    </pattern>
    <pattern
       id="pattern1502"
       width="12"
       height="12"
       patternUnits="userSpaceOnUse"
       patternTransform="scale(0.65)">
      <rect
         x="0"
         y="0"
         width="12"
         height="12"
         fill="white"
         id="rect1490" />
      <circle
         id="circle1492"
         cx="0"
         cy="0"
         r="1.75"
         fill="black" />
      <use
         xlink:href="#kruh-1"
         x="6"
         y="6"
         id="use1494" />
      <use
         xlink:href="#kruh-1"
         x="0"
         y="12"
         id="use1496" />
      <use
         xlink:href="#kruh-1"
         x="12"
         y="0"
         id="use1498" />
      <use
         xlink:href="#kruh-1"
         x="12"
         y="12"
         id="use1500" />
    </pattern>
    <pattern
       id="pattern1516"
       width="12"
       height="12"
       patternUnits="userSpaceOnUse"
       patternTransform="scale(0.65)">
      <rect
         x="0"
         y="0"
         width="12"
         height="12"
         fill="white"
         id="rect1504" />
      <circle
         id="circle1506"
         cx="0"
         cy="0"
         r="1.75"
         fill="black" />
      <use
         xlink:href="#kruh-1"
         x="6"
         y="6"
         id="use1508" />
      <use
         xlink:href="#kruh-1"
         x="0"
         y="12"
         id="use1510" />
      <use
         xlink:href="#kruh-1"
         x="12"
         y="0"
         id="use1512" />
      <use
         xlink:href="#kruh-1"
         x="12"
         y="12"
         id="use1514" />
    </pattern>
    <pattern
       id="pattern1530"
       width="12"
       height="12"
       patternUnits="userSpaceOnUse"
       patternTransform="scale(0.65)">
      <rect
         x="0"
         y="0"
         width="12"
         height="12"
         fill="white"
         id="rect1518" />
      <circle
         id="circle1520"
         cx="0"
         cy="0"
         r="1.75"
         fill="black" />
      <use
         xlink:href="#kruh-1"
         x="6"
         y="6"
         id="use1522" />
      <use
         xlink:href="#kruh-1"
         x="0"
         y="12"
         id="use1524" />
      <use
         xlink:href="#kruh-1"
         x="12"
         y="0"
         id="use1526" />
      <use
         xlink:href="#kruh-1"
         x="12"
         y="12"
         id="use1528" />
    </pattern>
    <pattern
       id="pattern1544"
       width="12"
       height="12"
       patternUnits="userSpaceOnUse"
       patternTransform="scale(0.65)">
      <rect
         x="0"
         y="0"
         width="12"
         height="12"
         fill="white"
         id="rect1532" />
      <circle
         id="circle1534"
         cx="0"
         cy="0"
         r="1.75"
         fill="black" />
      <use
         xlink:href="#kruh-1"
         x="6"
         y="6"
         id="use1536" />
      <use
         xlink:href="#kruh-1"
         x="0"
         y="12"
         id="use1538" />
      <use
         xlink:href="#kruh-1"
         x="12"
         y="0"
         id="use1540" />
      <use
         xlink:href="#kruh-1"
         x="12"
         y="12"
         id="use1542" />
    </pattern>
    <pattern
       id="pattern1558"
       width="12"
       height="12"
       patternUnits="userSpaceOnUse"
       patternTransform="scale(0.65)">
      <rect
         x="0"
         y="0"
         width="12"
         height="12"
         fill="white"
         id="rect1546" />
      <circle
         id="circle1548"
         cx="0"
         cy="0"
         r="1.75"
         fill="black" />
      <use
         xlink:href="#kruh-1"
         x="6"
         y="6"
         id="use1550" />
      <use
         xlink:href="#kruh-1"
         x="0"
         y="12"
         id="use1552" />
      <use
         xlink:href="#kruh-1"
         x="12"
         y="0"
         id="use1554" />
      <use
         xlink:href="#kruh-1"
         x="12"
         y="12"
         id="use1556" />
    </pattern>
    <pattern
       id="pattern1572"
       width="12"
       height="12"
       patternUnits="userSpaceOnUse"
       patternTransform="scale(0.65)">
      <rect
         x="0"
         y="0"
         width="12"
         height="12"
         fill="white"
         id="rect1560" />
      <circle
         id="circle1562"
         cx="0"
         cy="0"
         r="1.75"
         fill="black" />
      <use
         xlink:href="#kruh-1"
         x="6"
         y="6"
         id="use1564" />
      <use
         xlink:href="#kruh-1"
         x="0"
         y="12"
         id="use1566" />
      <use
         xlink:href="#kruh-1"
         x="12"
         y="0"
         id="use1568" />
      <use
         xlink:href="#kruh-1"
         x="12"
         y="12"
         id="use1570" />
    </pattern>
    <pattern
       id="pattern1586"
       width="12"
       height="12"
       patternUnits="userSpaceOnUse"
       patternTransform="scale(0.65)">
      <rect
         x="0"
         y="0"
         width="12"
         height="12"
         fill="white"
         id="rect1574" />
      <circle
         id="circle1576"
         cx="0"
         cy="0"
         r="1.75"
         fill="black" />
      <use
         xlink:href="#kruh-1"
         x="6"
         y="6"
         id="use1578" />
      <use
         xlink:href="#kruh-1"
         x="0"
         y="12"
         id="use1580" />
      <use
         xlink:href="#kruh-1"
         x="12"
         y="0"
         id="use1582" />
      <use
         xlink:href="#kruh-1"
         x="12"
         y="12"
         id="use1584" />
    </pattern>
    <pattern
       id="pattern1600"
       width="12"
       height="12"
       patternUnits="userSpaceOnUse"
       patternTransform="scale(0.65)">
      <rect
         x="0"
         y="0"
         width="12"
         height="12"
         fill="white"
         id="rect1588" />
      <circle
         id="circle1590"
         cx="0"
         cy="0"
         r="1.75"
         fill="black" />
      <use
         xlink:href="#kruh-1"
         x="6"
         y="6"
         id="use1592" />
      <use
         xlink:href="#kruh-1"
         x="0"
         y="12"
         id="use1594" />
      <use
         xlink:href="#kruh-1"
         x="12"
         y="0"
         id="use1596" />
      <use
         xlink:href="#kruh-1"
         x="12"
         y="12"
         id="use1598" />
    </pattern>
    <pattern
       id="pattern1614"
       width="12"
       height="12"
       patternUnits="userSpaceOnUse"
       patternTransform="scale(0.65)">
      <rect
         x="0"
         y="0"
         width="12"
         height="12"
         fill="white"
         id="rect1602" />
      <circle
         id="circle1604"
         cx="0"
         cy="0"
         r="1.75"
         fill="black" />
      <use
         xlink:href="#kruh-1"
         x="6"
         y="6"
         id="use1606" />
      <use
         xlink:href="#kruh-1"
         x="0"
         y="12"
         id="use1608" />
      <use
         xlink:href="#kruh-1"
         x="12"
         y="0"
         id="use1610" />
      <use
         xlink:href="#kruh-1"
         x="12"
         y="12"
         id="use1612" />
    </pattern>
    <pattern
       id="pattern1628"
       width="12"
       height="12"
       patternUnits="userSpaceOnUse"
       patternTransform="scale(0.65)">
      <rect
         x="0"
         y="0"
         width="12"
         height="12"
         fill="white"
         id="rect1616" />
      <circle
         id="circle1618"
         cx="0"
         cy="0"
         r="1.75"
         fill="black" />
      <use
         xlink:href="#kruh-1"
         x="6"
         y="6"
         id="use1620" />
      <use
         xlink:href="#kruh-1"
         x="0"
         y="12"
         id="use1622" />
      <use
         xlink:href="#kruh-1"
         x="12"
         y="0"
         id="use1624" />
      <use
         xlink:href="#kruh-1"
         x="12"
         y="12"
         id="use1626" />
    </pattern>
    <pattern
       id="pattern1642"
       width="12"
       height="12"
       patternUnits="userSpaceOnUse"
       patternTransform="scale(0.65)">
      <rect
         x="0"
         y="0"
         width="12"
         height="12"
         fill="white"
         id="rect1630" />
      <circle
         id="circle1632"
         cx="0"
         cy="0"
         r="1.75"
         fill="black" />
      <use
         xlink:href="#kruh-1"
         x="6"
         y="6"
         id="use1634" />
      <use
         xlink:href="#kruh-1"
         x="0"
         y="12"
         id="use1636" />
      <use
         xlink:href="#kruh-1"
         x="12"
         y="0"
         id="use1638" />
      <use
         xlink:href="#kruh-1"
         x="12"
         y="12"
         id="use1640" />
    </pattern>
  </defs>
  <sodipodi:namedview
     id="namedview127"
     pagecolor="#ffffff"
     bordercolor="#666666"
     borderopacity="1.0"
     inkscape:pageshadow="2"
     inkscape:pageopacity="0.0"
     inkscape:pagecheckerboard="0"
     showgrid="false"
     inkscape:zoom="1.2333333"
     inkscape:cx="199.86486"
     inkscape:cy="184.05405"
     inkscape:window-width="1920"
     inkscape:window-height="1001"
     inkscape:window-x="-9"
     inkscape:window-y="41"
     inkscape:window-maximized="1"
     inkscape:current-layer="vrstva"
     inkscape:snap-global="false"
     lock-margins="true"
     fit-margin-top="5"
     fit-margin-left="5"
     fit-margin-right="5"
     fit-margin-bottom="5" />
  <!-- květní diagram vygenerovaný webovou aplikací od Tomáše Keberta, která byla vytvořena v rámci bakalářské práce na Pedagogické fakultě Univerzity Karlovy -->
  <!-- floral diagram generated by a web application made by Tomáš Kebert, which was created as a part of bachelor thesis on the Faculty of Pedagogy, Charles University in Prague -->
  <!-- https://sites.google.com/site/kvetnidiagramy/ -->
  <g
     id="vrstva"
     inkscape:groupmode="layer"
     transform="translate(-174.27148,-174.27148)">
    <path
       id="path5273"
       style="fill:#ffffff;fill-opacity:1;stroke:none;stroke-width:3;stroke-linecap:round;stroke-linejoin:round;paint-order:markers fill stroke;stop-color:#000000"
       d="m 298.24414,179.27148 c -1.13004,2.58052 -1.79662,5.36337 -1.95898,8.17579 -0.14964,2.59202 0.13651,5.2061 0.82617,7.70898 -2.16743,-1.42955 -4.56452,-2.50924 -7.07617,-3.16797 -2.72495,-0.71467 -5.57744,-0.93942 -8.38086,-0.66211 l 0.52148,2.01367 -1.60742,1.32422 c 2.10501,1.87216 4.54532,3.36517 7.16992,4.38867 2.41898,0.94332 4.99434,1.48015 7.58789,1.59766 -2.02935,1.61959 -3.79659,3.56679 -5.19922,5.75195 -1.52174,2.37073 -2.61814,5.01372 -3.2207,7.76563 l 2.07813,0.12695 0.76171,1.93555 c 2.43102,-1.42346 4.60618,-3.28108 6.39063,-5.46094 1.64506,-2.00958 2.95004,-4.29362 3.86328,-6.72461 0.91323,2.43067 2.21841,4.71526 3.86328,6.72461 1.78445,2.17986 3.95961,4.03748 6.39063,5.46094 l 0.76171,-1.93555 2.07813,-0.12695 c -0.60256,-2.75191 -1.69896,-5.3949 -3.2207,-7.76563 -1.40263,-2.18516 -3.16987,-4.13236 -5.19922,-5.75195 2.59355,-0.11751 5.16891,-0.65434 7.58789,-1.59766 2.6246,-1.0235 5.06491,-2.51651 7.16992,-4.38867 l -1.60742,-1.32422 0.52148,-2.01367 c -2.80342,-0.27731 -5.65591,-0.0526 -8.38086,0.66211 -2.51165,0.65873 -4.90874,1.73842 -7.07617,3.16797 0.68966,-2.50288 0.97581,-5.11696 0.82617,-7.70898 -0.16236,-2.81242 -0.82894,-5.59527 -1.95898,-8.17579 L 300,180.39062 Z m -57.08789,15.29688 -0.96094,1.84766 -2.08008,-0.0937 c 0.31162,2.79981 1.12503,5.54373 2.39063,8.06054 1.16664,2.32001 2.72311,4.44072 4.57226,6.26367 -2.59193,-0.15435 -5.21022,0.10955 -7.71484,0.79493 -2.7172,0.74355 -5.30067,1.97531 -7.58984,3.61718 l 1.46094,1.48438 -0.73047,1.94922 c 2.75907,0.56883 5.61958,0.64271 8.40429,0.21679 2.56648,-0.39253 5.06436,-1.21715 7.36914,-2.4121 -0.94769,2.4173 -1.50481,4.98827 -1.62695,7.58203 -0.1325,2.81398 0.23964,5.65143 1.09375,8.33593 l 1.86328,-0.92968 1.62696,1.29687 c 1.39359,-2.44826 2.34923,-5.14574 2.80468,-7.92578 0.41982,-2.56251 0.4088,-5.19429 -0.0156,-7.75586 2.00598,1.64805 4.27823,2.97306 6.70703,3.89063 2.63531,0.99558 5.44857,1.51791 8.26562,1.53515 l -0.30859,-2.05859 1.73633,-1.14649 c -1.89779,-2.08194 -4.16864,-3.82299 -6.67188,-5.11523 -2.30708,-1.19098 -4.81188,-1.99289 -7.3789,-2.38086 2.18743,-1.39857 4.14818,-3.15123 5.77148,-5.17773 1.76122,-2.19868 3.12871,-4.71288 4.01563,-7.38672 l -2.05469,-0.3418 -0.55469,-2.00781 c -2.56649,1.16155 -4.92324,2.78423 -6.92578,4.76562 -1.8456,1.82611 -3.38269,3.9598 -4.54492,6.28125 -0.65417,-2.51247 -1.71498,-4.91984 -3.14063,-7.08984 -1.54682,-2.35445 -3.51429,-4.42984 -5.7832,-6.09961 z m 117.6875,0 c -2.26891,1.66977 -4.23638,3.74516 -5.7832,6.09961 -1.42565,2.17 -2.48646,4.57737 -3.14063,7.08984 -1.16223,-2.32145 -2.69932,-4.45514 -4.54492,-6.28125 -2.00254,-1.98139 -4.35929,-3.60407 -6.92578,-4.76562 l -0.55469,2.00781 -2.05469,0.3418 c 0.88692,2.67384 2.25441,5.18804 4.01563,7.38672 1.6233,2.0265 3.58405,3.77916 5.77148,5.17773 -2.56702,0.38797 -5.07182,1.18988 -7.3789,2.38086 -2.50324,1.29224 -4.77409,3.03329 -6.67188,5.11523 l 1.73633,1.14649 -0.30859,2.05859 c 2.81705,-0.0172 5.63031,-0.53957 8.26562,-1.53515 2.4288,-0.91757 4.70105,-2.24258 6.70703,-3.89063 -0.42442,2.56157 -0.43544,5.19335 -0.0156,7.75586 0.45545,2.78004 1.41109,5.47752 2.80468,7.92578 l 1.62696,-1.29687 1.86328,0.92968 c 0.85411,-2.6845 1.22625,-5.52195 1.09375,-8.33593 -0.12214,-2.59376 -0.67926,-5.16473 -1.62695,-7.58203 2.30478,1.19495 4.80266,2.01957 7.36914,2.4121 2.78471,0.42592 5.64522,0.35204 8.40429,-0.21679 l -0.73047,-1.94922 1.46094,-1.48438 c -2.28917,-1.64187 -4.87264,-2.87363 -7.58984,-3.61718 -2.50462,-0.68538 -5.12291,-0.94928 -7.71484,-0.79493 1.84915,-1.82295 3.40562,-3.94366 4.57226,-6.26367 1.2656,-2.51681 2.07901,-5.26073 2.39063,-8.06054 l -2.08008,0.0937 z m -65.11328,34.47266 c 0,0 -5.16519,20.0035 -5,30.20898 0.15423,9.52864 3.94808,25.15717 6.25195,33.84375 -7.54944,-4.87539 -21.24116,-13.31307 -30.25586,-16.4043 -9.65494,-3.31077 -30.27539,-4.58007 -30.27539,-4.58007 l 1.86719,7.19921 -5.74219,4.72657 c 0,0 17.42852,11.09523 27.18555,14.09179 9.10975,2.79778 25.14567,4.01656 34.11914,4.50977 -6.9697,5.67339 -19.22558,16.08882 -24.95117,23.70703 -6.13227,8.15931 -13.71094,27.37891 -13.71094,27.37891 l 7.42383,0.44922 2.7207,6.92187 c 0,0 15.93775,-13.14845 21.80274,-21.50195 5.47618,-7.79972 11.59209,-22.67502 14.83398,-31.05664 3.24189,8.38162 9.3578,23.25692 14.83398,31.05664 5.86499,8.3535 21.80274,21.50195 21.80274,21.50195 l 2.7207,-6.92187 7.42383,-0.44922 c 0,0 -7.57867,-19.2196 -13.71094,-27.37891 -5.72559,-7.61821 -17.98147,-18.03364 -24.95117,-23.70703 8.97347,-0.49321 25.00939,-1.71199 34.11914,-4.50977 9.75703,-2.99656 27.18555,-14.09179 27.18555,-14.09179 l -5.74219,-4.72657 1.86719,-7.19921 c 0,0 -20.62045,1.2693 -30.27539,4.58007 -9.01485,3.09128 -22.7065,11.53091 -30.25586,16.40625 2.30382,-8.6862 6.09771,-24.31641 6.25195,-33.8457 0.16519,-10.20548 -5,-30.20898 -5,-30.20898 l -6.26953,4 z m -78.67188,0.73242 c -1.64187,2.28917 -2.87363,4.87264 -3.61718,7.58984 -0.68538,2.50462 -0.94928,5.12291 -0.79493,7.71484 -1.82295,-1.84915 -3.94366,-3.40562 -6.26367,-4.57226 -2.51681,-1.2656 -5.26073,-2.07901 -8.06054,-2.39063 l 0.0937,2.08008 -1.84766,0.96094 c 1.66977,2.26891 3.74516,4.23638 6.09961,5.7832 2.17,1.42565 4.57737,2.48646 7.08984,3.14063 -2.32145,1.16223 -4.45514,2.69932 -6.28125,4.54492 -1.98139,2.00254 -3.60407,4.35929 -4.76562,6.92578 l 2.00781,0.55469 0.3418,2.05469 c 2.67384,-0.88692 5.18804,-2.25441 7.38672,-4.01563 2.0265,-1.6233 3.77916,-3.58405 5.17773,-5.77148 0.38797,2.56702 1.18988,5.07182 2.38086,7.3789 1.29224,2.50324 3.03329,4.77409 5.11523,6.67188 l 1.14649,-1.73633 2.05859,0.30859 c -0.0172,-2.81705 -0.53957,-5.63031 -1.53515,-8.26562 -0.91757,-2.4288 -2.24258,-4.70105 -3.89063,-6.70703 2.56157,0.42442 5.19335,0.43544 7.75586,0.0156 2.78004,-0.45545 5.47752,-1.41109 7.92578,-2.80468 l -1.29687,-1.62696 0.92968,-1.86328 c -2.6845,-0.85411 -5.52195,-1.22625 -8.33593,-1.09375 -2.59376,0.12214 -5.16473,0.67926 -7.58203,1.62695 1.19495,-2.30478 2.01957,-4.80266 2.4121,-7.36914 0.42592,-2.78471 0.35204,-5.64522 -0.21679,-8.40429 l -1.94922,0.73047 z m 169.88282,0 -1.48438,1.46094 -1.94922,-0.73047 c -0.56883,2.75907 -0.64271,5.61958 -0.21679,8.40429 0.39253,2.56648 1.21715,5.06436 2.4121,7.36914 -2.4173,-0.94769 -4.98827,-1.50481 -7.58203,-1.62695 -2.81398,-0.1325 -5.65143,0.23964 -8.33593,1.09375 l 0.92968,1.86328 -1.29687,1.62696 c 2.44826,1.39359 5.14574,2.34923 7.92578,2.80468 2.56251,0.41982 5.19429,0.4088 7.75586,-0.0156 -1.64805,2.00598 -2.97306,4.27823 -3.89063,6.70703 -0.99558,2.63531 -1.51791,5.44857 -1.53515,8.26562 l 2.05859,-0.30859 1.14649,1.73633 c 2.08194,-1.89779 3.82299,-4.16864 5.11523,-6.67188 1.19098,-2.30708 1.99289,-4.81188 2.38086,-7.3789 1.39857,2.18743 3.15123,4.14818 5.17773,5.77148 2.19868,1.76122 4.71288,3.12871 7.38672,4.01563 l 0.3418,-2.05469 2.00781,-0.55469 c -1.16155,-2.56649 -2.78423,-4.92324 -4.76562,-6.92578 -1.82611,-1.8456 -3.9598,-3.38269 -6.28125,-4.54492 2.51247,-0.65417 4.91984,-1.71498 7.08984,-3.14063 2.35445,-1.54682 4.42984,-3.51429 6.09961,-5.7832 l -1.84766,-0.96094 0.0937,-2.08008 c -2.79981,0.31162 -5.54373,1.12503 -8.06054,2.39063 -2.32001,1.16664 -4.44072,2.72311 -6.26367,4.57226 0.15435,-2.59193 -0.10955,-5.21022 -0.79493,-7.71484 -0.74355,-2.7172 -1.97531,-5.30067 -3.61718,-7.58984 z m -190.27735,50.79492 -1.32422,1.60742 -2.01367,-0.52148 c -0.27731,2.80342 -0.0526,5.65591 0.66211,8.38086 0.65873,2.51165 1.73842,4.90874 3.16797,7.07617 -2.50288,-0.68966 -5.11696,-0.97581 -7.70898,-0.82617 -2.81242,0.16236 -5.59527,0.82894 -8.17579,1.95898 l 1.11914,1.75586 -1.11914,1.75586 c 2.58052,1.13004 5.36337,1.79662 8.17579,1.95898 2.59202,0.14964 5.2061,-0.13651 7.70898,-0.82617 -1.42955,2.16743 -2.50924,4.56452 -3.16797,7.07617 -0.71467,2.72495 -0.93942,5.57744 -0.66211,8.38086 l 2.01367,-0.52148 1.32422,1.60742 c 1.87216,-2.10501 3.36517,-4.54532 4.38867,-7.16992 0.94332,-2.41898 1.48015,-4.99434 1.59766,-7.58789 1.61959,2.02935 3.56679,3.79659 5.75195,5.19922 2.37073,1.52174 5.01372,2.61814 7.76563,3.2207 l 0.12695,-2.07813 1.93555,-0.76171 c -1.42346,-2.43102 -3.28108,-4.60618 -5.46094,-6.39063 -2.00958,-1.64506 -4.29362,-2.95004 -6.72461,-3.86328 2.43067,-0.91323 4.71526,-2.21841 6.72461,-3.86328 2.17986,-1.78445 4.03748,-3.95961 5.46094,-6.39063 l -1.93555,-0.76171 -0.12695,-2.07813 c -2.75191,0.60256 -5.3949,1.69896 -7.76563,3.2207 -2.18516,1.40263 -4.13236,3.16987 -5.75195,5.19922 -0.11751,-2.59355 -0.65434,-5.16891 -1.59766,-7.58789 -1.0235,-2.6246 -2.51651,-5.06491 -4.38867,-7.16992 z m 210.67188,0 c -1.87216,2.10501 -3.36517,4.54532 -4.38867,7.16992 -0.94332,2.41898 -1.48015,4.99434 -1.59766,7.58789 -1.61959,-2.02935 -3.56679,-3.79659 -5.75195,-5.19922 -2.37073,-1.52174 -5.01372,-2.61814 -7.76563,-3.2207 l -0.12695,2.07813 -1.93555,0.76171 c 1.42346,2.43102 3.28108,4.60618 5.46094,6.39063 2.00958,1.64506 4.29362,2.95004 6.72461,3.86328 -2.43067,0.91323 -4.71526,2.21841 -6.72461,3.86328 -2.17986,1.78445 -4.03748,3.95961 -5.46094,6.39063 l 1.93555,0.76171 0.12695,2.07813 c 2.75191,-0.60256 5.3949,-1.69896 7.76563,-3.2207 2.18516,-1.40263 4.13236,-3.16987 5.75195,-5.19922 0.11751,2.59355 0.65434,5.16891 1.59766,7.58789 1.0235,2.6246 2.51651,5.06491 4.38867,7.16992 l 1.32422,-1.60742 2.01367,0.52148 c 0.27731,-2.80342 0.0526,-5.65591 -0.66211,-8.38086 -0.65873,-2.51165 -1.73842,-4.90874 -3.16797,-7.07617 2.50288,0.68966 5.11696,0.97581 7.70898,0.82617 2.81242,-0.16236 5.59527,-0.82894 8.17579,-1.95898 L 419.60938,300 l 1.11914,-1.75586 c -2.58052,-1.13004 -5.36337,-1.79662 -8.17579,-1.95898 -2.59202,-0.14964 -5.2061,0.13651 -7.70898,0.82617 1.42955,-2.16743 2.50924,-4.56452 3.16797,-7.07617 0.71467,-2.72495 0.93942,-5.57744 0.66211,-8.38086 l -2.01367,0.52148 z m -186.21485,51.00781 c -2.08194,1.89779 -3.82299,4.16864 -5.11523,6.67188 -1.19098,2.30708 -1.99289,4.81188 -2.38086,7.3789 -1.39857,-2.18743 -3.15123,-4.14818 -5.17773,-5.77148 -2.19868,-1.76122 -4.71288,-3.12871 -7.38672,-4.01563 l -0.3418,2.05469 -2.00781,0.55469 c 1.16155,2.56649 2.78423,4.92324 4.76562,6.92578 1.82611,1.8456 3.9598,3.38269 6.28125,4.54492 -2.51247,0.65417 -4.91984,1.71498 -7.08984,3.14063 -2.35445,1.54682 -4.42984,3.51429 -6.09961,5.7832 l 1.84766,0.96094 -0.0937,2.08008 c 2.79981,-0.31162 5.54373,-1.12503 8.06054,-2.39063 2.32001,-1.16664 4.44072,-2.72311 6.26367,-4.57226 -0.15435,2.59193 0.10955,5.21022 0.79493,7.71484 0.74355,2.7172 1.97531,5.30067 3.61718,7.58984 l 1.48438,-1.46094 1.94922,0.73047 c 0.56883,-2.75907 0.64271,-5.61958 0.21679,-8.40429 -0.39253,-2.56648 -1.21715,-5.06436 -2.4121,-7.36914 2.4173,0.94769 4.98827,1.50481 7.58203,1.62695 2.81398,0.1325 5.65143,-0.23964 8.33593,-1.09375 l -0.92968,-1.86328 1.29687,-1.62696 c -2.44826,-1.39359 -5.14574,-2.34923 -7.92578,-2.80468 -2.56251,-0.41982 -5.19429,-0.4088 -7.75586,0.0156 1.64805,-2.00598 2.97306,-4.27823 3.89063,-6.70703 0.99558,-2.63531 1.51791,-5.44857 1.53515,-8.26562 l -2.05859,0.30859 z m 161.75782,0 -1.14649,1.73633 -2.05859,-0.30859 c 0.0172,2.81705 0.53957,5.63031 1.53515,8.26562 0.91757,2.4288 2.24258,4.70105 3.89063,6.70703 -2.56157,-0.42442 -5.19335,-0.43544 -7.75586,-0.0156 -2.78004,0.45545 -5.47752,1.41109 -7.92578,2.80468 l 1.29687,1.62696 -0.92968,1.86328 c 2.6845,0.85411 5.52195,1.22625 8.33593,1.09375 2.59376,-0.12214 5.16473,-0.67926 7.58203,-1.62695 -1.19495,2.30478 -2.01957,4.80266 -2.4121,7.36914 -0.42592,2.78471 -0.35204,5.64522 0.21679,8.40429 l 1.94922,-0.73047 1.48438,1.46094 c 1.64187,-2.28917 2.87363,-4.87264 3.61718,-7.58984 0.68538,-2.50462 0.94928,-5.12291 0.79493,-7.71484 1.82295,1.84915 3.94366,3.40562 6.26367,4.57226 2.51681,1.2656 5.26073,2.07901 8.06054,2.39063 l -0.0937,-2.08008 1.84766,-0.96094 c -1.66977,-2.26891 -3.74516,-4.23638 -6.09961,-5.7832 -2.17,-1.42565 -4.57737,-2.48646 -7.08984,-3.14063 2.32145,-1.16223 4.45514,-2.69932 6.28125,-4.54492 1.98139,-2.00254 3.60407,-4.35929 4.76562,-6.92578 l -2.00781,-0.55469 -0.3418,-2.05469 c -2.67384,0.88692 -5.18804,2.25441 -7.38672,4.01563 -2.0265,1.6233 -3.77916,3.58405 -5.17773,5.77148 -0.38797,-2.56702 -1.18988,-5.07182 -2.38086,-7.3789 -1.29224,-2.50324 -3.03329,-4.77409 -5.11523,-6.67188 z m -131.64453,35.8418 -1.62696,1.29687 -1.86328,-0.92968 c -0.85411,2.6845 -1.22625,5.52195 -1.09375,8.33593 0.12214,2.59376 0.67926,5.16473 1.62695,7.58203 -2.30478,-1.19495 -4.80266,-2.01957 -7.36914,-2.4121 -2.78471,-0.42592 -5.64522,-0.35204 -8.40429,0.21679 l 0.73047,1.94922 -1.46094,1.48438 c 2.28917,1.64187 4.87264,2.87363 7.58984,3.61718 2.50462,0.68538 5.12291,0.94928 7.71484,0.79493 -1.84915,1.82295 -3.40562,3.94366 -4.57226,6.26367 -1.2656,2.51681 -2.07901,5.26073 -2.39063,8.06054 l 2.08008,-0.0937 0.96094,1.84766 c 2.26891,-1.66977 4.23638,-3.74516 5.7832,-6.09961 1.42565,-2.17 2.48646,-4.57737 3.14063,-7.08984 1.16223,2.32145 2.69932,4.45514 4.54492,6.28125 2.00254,1.98139 4.35929,3.60407 6.92578,4.76562 l 0.55469,-2.00781 2.05469,-0.3418 c -0.88692,-2.67384 -2.25441,-5.18804 -4.01563,-7.38672 -1.6233,-2.0265 -3.58405,-3.77916 -5.77148,-5.17773 2.56702,-0.38797 5.07182,-1.18988 7.3789,-2.38086 2.50324,-1.29224 4.77409,-3.03329 6.67188,-5.11523 l -1.73633,-1.14649 0.30859,-2.05859 c -2.81705,0.0172 -5.63031,0.53957 -8.26562,1.53515 -2.4288,0.91757 -4.70105,2.24258 -6.70703,3.89063 0.42442,-2.56157 0.43544,-5.19335 0.0156,-7.75586 -0.45545,-2.78004 -1.41109,-5.47752 -2.80468,-7.92578 z m 101.53124,0 c -1.39359,2.44826 -2.34923,5.14574 -2.80468,7.92578 -0.41982,2.56251 -0.4088,5.19429 0.0156,7.75586 -2.00598,-1.64805 -4.27823,-2.97306 -6.70703,-3.89063 -2.63531,-0.99558 -5.44857,-1.51791 -8.26562,-1.53515 l 0.30859,2.05859 -1.73633,1.14649 c 1.89779,2.08194 4.16864,3.82299 6.67188,5.11523 2.30708,1.19098 4.81188,1.99289 7.3789,2.38086 -2.18743,1.39857 -4.14818,3.15123 -5.77148,5.17773 -1.76122,2.19868 -3.12871,4.71288 -4.01563,7.38672 l 2.05469,0.3418 0.55469,2.00781 c 2.56649,-1.16155 4.92324,-2.78423 6.92578,-4.76562 1.8456,-1.82611 3.38269,-3.9598 4.54492,-6.28125 0.65417,2.51247 1.71498,4.91984 3.14063,7.08984 1.54682,2.35445 3.51429,4.42984 5.7832,6.09961 l 0.96094,-1.84766 2.08008,0.0937 c -0.31162,-2.79981 -1.12503,-5.54373 -2.39063,-8.06054 -1.16664,-2.32001 -2.72311,-4.44072 -4.57226,-6.26367 2.59193,0.15435 5.21022,-0.10955 7.71484,-0.79493 2.7172,-0.74355 5.30067,-1.97531 7.58984,-3.61718 l -1.46094,-1.48438 0.73047,-1.94922 c -2.75907,-0.56883 -5.61958,-0.64271 -8.40429,-0.21679 -2.56648,0.39253 -5.06436,1.21715 -7.36914,2.4121 0.94769,-2.4173 1.50481,-4.98827 1.62695,-7.58203 0.1325,-2.81398 -0.23964,-5.65143 -1.09375,-8.33593 l -1.86328,0.92968 z m -61.01953,16.35156 -0.76171,1.93555 -2.07813,0.12695 c 0.60256,2.75191 1.69896,5.3949 3.2207,7.76563 1.40263,2.18516 3.16987,4.13236 5.19922,5.75195 -2.59355,0.11751 -5.16891,0.65434 -7.58789,1.59766 -2.6246,1.0235 -5.06491,2.51651 -7.16992,4.38867 l 1.60742,1.32422 -0.52148,2.01367 c 2.80342,0.27731 5.65591,0.0526 8.38086,-0.66211 2.51165,-0.65873 4.90874,-1.73842 7.07617,-3.16797 -0.68966,2.50288 -0.97581,5.11696 -0.82617,7.70898 0.16236,2.81242 0.82894,5.59527 1.95898,8.17579 L 300,419.60938 l 1.75586,1.11914 c 1.13004,-2.58052 1.79662,-5.36337 1.95898,-8.17579 0.14964,-2.59202 -0.13651,-5.2061 -0.82617,-7.70898 2.16743,1.42955 4.56452,2.50924 7.07617,3.16797 2.72495,0.71467 5.57744,0.93942 8.38086,0.66211 l -0.52148,-2.01367 1.60742,-1.32422 c -2.10501,-1.87216 -4.54532,-3.36517 -7.16992,-4.38867 -2.41898,-0.94332 -4.99434,-1.48015 -7.58789,-1.59766 2.02935,-1.61959 3.79659,-3.56679 5.19922,-5.75195 1.52174,-2.37073 2.61814,-5.01372 3.2207,-7.76563 l -2.07813,-0.12695 -0.76171,-1.93555 c -2.43102,1.42346 -4.60618,3.28108 -6.39063,5.46094 -1.64526,2.00982 -2.95002,4.29525 -3.86328,6.72656 -0.91326,-2.43131 -2.21802,-4.71674 -3.86328,-6.72656 -1.78445,-2.17986 -3.95961,-4.03748 -6.39063,-5.46094 z"
       sodipodi:nodetypes="cscscccscscccscscccscscccccsccccccscscccscscccscscccscscccscscccscscccscscccscscccscscccscsccccscscccscscccscscccscscccscsccccscscccscscccscscccscccccscsccccccscscccscscccscscccscscccscscccccccscccscscccscscccscscccscsccscscccscscccscscccscscccscsccccscscccscscccscscccscscccscsccccccscscccscscccscscccscscccscssccccscscccscscccscscccscscccscssccscscccscscccscscccscscccscsccccccscscccscscccscscccscscccscsc" />
    <!-- <circle cx="300" cy="300" r="150" style="fill: grey;" /> -->
    <!-- nadpisy klonovaných součástí -->
    <defs
       id="defs37">
      <pattern
         id="srafovani_pestik"
         height="7"
         width="10"
         patternUnits="userSpaceOnUse">
        <rect
           height="10"
           width="10"
           y="0"
           x="0"
           style="fill: ;"
           id="rect32" />
        <rect
           height="2"
           width="10"
           y="0"
           x="0"
           style="fill: white;"
           id="rect34" />
      </pattern>
    </defs>
    <!-- PESTÍK -->
    <defs
       id="defs51">
      <pattern
         id="tecky"
         width="12"
         height="12"
         patternUnits="userSpaceOnUse"
         patternTransform="scale(0.65)">
        <rect
           x="0"
           y="0"
           width="12"
           height="12"
           fill="white"
           id="rect39" />
        <circle
           id="kruh"
           cx="0"
           cy="0"
           r="1.75"
           fill="black" />
        <use
           xlink:href="#kruh"
           x="6"
           y="6"
           id="use42" />
        <use
           xlink:href="#kruh"
           x="0"
           y="12"
           id="use44" />
        <use
           xlink:href="#kruh"
           x="12"
           y="0"
           id="use46" />
        <use
           xlink:href="#kruh"
           x="12"
           y="12"
           id="use48" />
      </pattern>
    </defs>
    <!-- VAJÍČKA II -->
    <g
       transform="translate(-240,-200)"
       id="g108">
      <g
         id="vajicka" />
    </g>
    <defs
       id="defs120">
      <clipPath
         clipPathUnits="userSpaceOnUse"
         id="orez" />
    </defs>
    <g
       clip-path="url(#orez)"
       id="g122" />
  </g>
</svg>
